<svg width="32" height="26" viewBox="0 0 32 26" fill="none" xmlns="http://www.w3.org/2000/svg">
<path d="M22.6667 0H9.33333C9.33333 0 0 8.21053 0 17.7895C0 23.2632 4 26 6.66667 26C9.33333 26 16 26 16 26C16 26 22.6667 26 25.3333 26C28 26 32 23.2632 32 17.7895C32 8.21053 22.6667 0 22.6667 0ZM17.3333 19.0183V21.2105H14.6667V19.0252C12.7053 18.6475 11.472 17.4104 11.4 15.6027H13.7093C13.82 16.5524 14.7533 17.1614 16.0987 17.1614C17.34 17.1614 18.2187 16.5442 18.2187 15.6588C18.2187 14.9117 17.6493 14.482 16.2493 14.1727L14.7627 13.8484C12.6827 13.4023 11.6613 12.2898 11.6613 10.504C11.6613 8.70726 12.82 7.42642 14.6667 7.00495V4.78947H17.3333V7.00084C19.1333 7.41411 20.336 8.67305 20.3947 10.374H18.148C18.0373 9.44895 17.1987 8.83179 16.044 8.83179C14.8493 8.83179 14.0587 9.39968 14.0587 10.2933C14.0587 11.0158 14.604 11.4304 15.9413 11.7219L17.3173 12.0229C19.612 12.5183 20.6 13.5337 20.6 15.3509C20.6 17.3078 19.376 18.6201 17.3333 19.0183Z" fill="#252525"/>
</svg>
